<svg width="26" height="24" viewBox="0 0 26 24" fill="none" xmlns="http://www.w3.org/2000/svg">
<path d="M11 12L7.46447 15.5355L3.92893 19.0711" stroke="white" stroke-width="2" stroke-linecap="round"/>
<path d="M15 12L22.0711 19.0711" stroke="white" stroke-width="2" stroke-linecap="round"/>
<path d="M3 7C3 5.89543 3.89543 5 5 5H21C22.1046 5 23 5.89543 23 7V12.5V18C23 19.1046 22.1046 20 21 20H5C3.89543 20 3 19.1046 3 18V7Z" stroke="white" stroke-width="2"/>
<path d="M13.6459 13.1435L21.1861 6.76339C21.8972 6.16165 21.4717 5 20.5401 5H5.45989C4.52833 5 4.1028 6.16165 4.81395 6.76339L12.3541 13.1435C12.7269 13.459 13.2731 13.459 13.6459 13.1435Z" stroke="white" stroke-width="2"/>
</svg>
