<svg width="24" height="24" viewBox="0 0 24 24" fill="none" xmlns="http://www.w3.org/2000/svg">
<path d="M4 3C4 2.44771 4.44772 2 5 2H19C19.5523 2 20 2.44772 20 3V20C20 20.5523 19.5523 21 19 21H5C4.44772 21 4 20.5523 4 20V3Z" fill="white"/>
<path fill-rule="evenodd" clip-rule="evenodd" d="M6.82373 17.3492C6.82373 16.8505 7.24511 16.4463 7.76491 16.4463H16.2355C16.7553 16.4463 17.1767 16.8505 17.1767 17.3492C17.1767 17.8478 16.7553 18.2521 16.2355 18.2521H7.76491C7.24511 18.2521 6.82373 17.8478 6.82373 17.3492Z" fill="#767676"/>
<path fill-rule="evenodd" clip-rule="evenodd" d="M6.82373 13.7374C6.82373 13.2387 7.24511 12.8345 7.76491 12.8345H16.2355C16.7553 12.8345 17.1767 13.2387 17.1767 13.7374C17.1767 14.236 16.7553 14.6403 16.2355 14.6403H7.76491C7.24511 14.6403 6.82373 14.236 6.82373 13.7374Z" fill="#767676"/>
<path fill-rule="evenodd" clip-rule="evenodd" d="M6.82373 10.126C6.82373 9.62738 7.24511 9.22314 7.76491 9.22314H16.2355C16.7553 9.22314 17.1767 9.62738 17.1767 10.126C17.1767 10.6247 16.7553 11.0289 16.2355 11.0289H7.76491C7.24511 11.0289 6.82373 10.6247 6.82373 10.126Z" fill="#767676"/>
<path fill-rule="evenodd" clip-rule="evenodd" d="M6.82373 6.51422C6.82373 6.01557 7.24511 5.61133 7.76491 5.61133H16.2355C16.7553 5.61133 17.1767 6.01557 17.1767 6.51422C17.1767 7.01287 16.7553 7.41711 16.2355 7.41711H7.76491C7.24511 7.41711 6.82373 7.01287 6.82373 6.51422Z" fill="#767676"/>
<path fill-rule="evenodd" clip-rule="evenodd" d="M3.05859 4.70874C3.05859 2.71412 4.74411 1.09717 6.8233 1.09717H17.1762C19.2554 1.09717 20.9409 2.71412 20.9409 4.70874V19.155C20.9409 21.1496 19.2554 22.7666 17.1762 22.7666H6.8233C4.74411 22.7666 3.05859 21.1496 3.05859 19.155V4.70874ZM6.8233 2.90295C5.78371 2.90295 4.94095 3.71143 4.94095 4.70874V19.155C4.94095 20.1523 5.78371 20.9608 6.8233 20.9608H17.1762C18.2158 20.9608 19.0586 20.1523 19.0586 19.155V4.70874C19.0586 3.71143 18.2158 2.90295 17.1762 2.90295H6.8233Z" fill="#767676"/>
</svg>
