<svg width="24" height="24" viewBox="0 0 24 24" fill="none" xmlns="http://www.w3.org/2000/svg">
<path fill-rule="evenodd" clip-rule="evenodd" d="M6.78955 17.5002C6.78955 16.9939 7.2137 16.5835 7.73692 16.5835H16.2632C16.7865 16.5835 17.2106 16.9939 17.2106 17.5002C17.2106 18.0064 16.7865 18.4168 16.2632 18.4168H7.73692C7.2137 18.4168 6.78955 18.0064 6.78955 17.5002Z" fill="#767676"/>
<path fill-rule="evenodd" clip-rule="evenodd" d="M6.78955 13.8332C6.78955 13.3269 7.2137 12.9165 7.73692 12.9165H16.2632C16.7865 12.9165 17.2106 13.3269 17.2106 13.8332C17.2106 14.3394 16.7865 14.7498 16.2632 14.7498H7.73692C7.2137 14.7498 6.78955 14.3394 6.78955 13.8332Z" fill="#767676"/>
<path fill-rule="evenodd" clip-rule="evenodd" d="M6.78955 10.1667C6.78955 9.66041 7.2137 9.25 7.73692 9.25H16.2632C16.7865 9.25 17.2106 9.66041 17.2106 10.1667C17.2106 10.6729 16.7865 11.0833 16.2632 11.0833H7.73692C7.2137 11.0833 6.78955 10.6729 6.78955 10.1667Z" fill="#767676"/>
<path fill-rule="evenodd" clip-rule="evenodd" d="M6.78955 6.50016C6.78955 5.9939 7.2137 5.5835 7.73692 5.5835H16.2632C16.7865 5.5835 17.2106 5.9939 17.2106 6.50016C17.2106 7.00642 16.7865 7.41683 16.2632 7.41683H7.73692C7.2137 7.41683 6.78955 7.00642 6.78955 6.50016Z" fill="#767676"/>
<path fill-rule="evenodd" clip-rule="evenodd" d="M3 4.66667C3 2.64162 4.69661 1 6.78947 1H17.2105C19.3034 1 21 2.64162 21 4.66667V19.3333C21 21.3584 19.3034 23 17.2105 23H6.78947C4.6966 23 3 21.3584 3 19.3333V4.66667ZM6.78947 2.83333C5.74304 2.83333 4.89474 3.65414 4.89474 4.66667V19.3333C4.89474 20.3459 5.74304 21.1667 6.78947 21.1667H17.2105C18.257 21.1667 19.1053 20.3459 19.1053 19.3333V4.66667C19.1053 3.65414 18.257 2.83333 17.2105 2.83333H6.78947Z" fill="#767676"/>
</svg>
